<svg xmlns="http://www.w3.org/2000/svg" viewBox="0 0 58.84 64.27"><defs><style>.cls-1{isolation:isolate;}.cls-2{fill:#fff;}.cls-3{fill:#464646;}.cls-4{fill:#7f63f4;mix-blend-mode:multiply;}</style></defs><g class="cls-1"><g id="Шар_2" data-name="Шар 2"><g id="Режим_изоляции" data-name="Режим изоляции"><ellipse class="cls-2" cx="30.85" cy="59.36" rx="6.67" ry="2.99"/><path class="cls-3" d="M30.85,63.25c-4.31,0-7.57-1.68-7.57-3.89s3.26-3.89,7.57-3.89,7.57,1.67,7.57,3.89S35.17,63.25,30.85,63.25Zm0-6c-3.47,0-5.77,1.26-5.77,2.09s2.3,2.09,5.77,2.09,5.77-1.26,5.77-2.09S34.32,57.27,30.85,57.27Z"/><path class="cls-2" d="M38.2,11.62a1.55,1.55,0,0,0-.51-.2c-.24-.06-.48-.17-.72-.25l-.07,0c-.53-.17-1.06-.33-1.57-.55a1.8,1.8,0,0,1-.9-.56,1.54,1.54,0,0,1-.21-.94,7.2,7.2,0,0,1,1-2.48c.06-.13.81-1.51.77-1.53L30.9,1.65c-.13-.09-2.3,4.51-2.52,5a9.68,9.68,0,0,1-2.49,3.32,17,17,0,0,1-3,2C12.62,16.19,3.27,27.17,3.79,36.58c.65,12,11.77,22.78,26.72,22.78l.34,0,.34,0c15,0,26.07-10.78,26.73-22.78C58.44,27,48.7,15.73,38.2,11.62Z"/><path class="cls-3" d="M31.19,60.26h-.68c-14.76,0-26.9-10.38-27.62-23.63-.57-10.46,9.74-21.42,19.62-25.57a17.15,17.15,0,0,0,2.8-1.8,9,9,0,0,0,2.26-3C30,1,30.26.89,30.65.78l.4-.11,5.49,3.67c.69.48.47.9-.35,2.44L36.07,7c-.1.2-.22.41-.33.61a4.29,4.29,0,0,0-.62,1.54.59.59,0,0,0,.06.36,1.11,1.11,0,0,0,.35.18,13.85,13.85,0,0,0,1.36.49l.29.09.41.15.34.11a2.46,2.46,0,0,1,.72.28c10.22,4.06,20.74,15.36,20.17,25.8C58.09,49.88,46,60.26,31.19,60.26Zm0-57.34c-.6,1.17-1.68,3.42-2,4.08a10.51,10.51,0,0,1-2.72,3.62,18.25,18.25,0,0,1-3.18,2.06C12.71,17.13,4.22,28,4.69,36.53c.67,12.3,12,21.93,25.82,21.93l.33,0h.24C45,58.45,56.35,48.82,57,36.53c.47-8.64-8.47-19.89-19.14-24.07l-.27-.13-.1,0a3.87,3.87,0,0,1-.55-.19l-.63-.21A13.57,13.57,0,0,1,35,11.43a2.59,2.59,0,0,1-1.3-.89A2.31,2.31,0,0,1,33.33,9a5.61,5.61,0,0,1,.83-2.26l.29-.55.15-.28.29-.54Z"/><path class="cls-2" d="M34.34,2.1c1.4,1.1,2.18,2.46,1.72,3s-2,.16-3.36-.94-2.17-2.45-1.72-3S32.94,1,34.34,2.1Z"/><path class="cls-3" d="M35.39,6.29A5.7,5.7,0,0,1,32.15,4.9a7.23,7.23,0,0,1-1.79-2A2,2,0,0,1,30.27.6c.95-1.2,3.06-.43,4.63.79a6.92,6.92,0,0,1,1.78,2,2,2,0,0,1,.09,2.32,1.57,1.57,0,0,1-1.1.59ZM31.81,1.81a4.77,4.77,0,0,0,1.45,1.67,4.78,4.78,0,0,0,2,1,4.61,4.61,0,0,0-1.44-1.68A4.69,4.69,0,0,0,31.81,1.81Z"/><path class="cls-3" d="M32.43,59.89a23.77,23.77,0,0,1-14.74-5.27c-7.22-5.79-11-14.7-9.64-22.7.78-4.61,3.29-9.27,7.24-13.48A63.53,63.53,0,0,1,25.42,9.21l1,1.46a62.44,62.44,0,0,0-9.87,9A24.93,24.93,0,0,0,9.82,32.22c-1.25,7.36,2.28,15.61,9,21A21.77,21.77,0,0,0,34.09,58l.16,1.8C33.64,59.87,33,59.89,32.43,59.89Z"/><path class="cls-3" d="M25.41,13.53A38.76,38.76,0,0,0,19.1,41.46c1.11,7.31,4.41,18.22,13.14,18.78,1.21.08,1.21-1.81,0-1.89-10-.65-12-18-11.66-24.74A36.23,36.23,0,0,1,27,14.49c.69-1-.95-2-1.63-1Z"/><path class="cls-3" d="M28.52,13.76c-2.9,15.69-1.23,30.05,1,45.63.17,1.2,2,.69,1.82-.5-2.22-15.36-3.88-29.2-1-44.63.22-1.19-1.6-1.7-1.82-.5Z"/><path class="cls-3" d="M38.26,22.86a39.39,39.39,0,0,1,1.56,18.78C38.93,47.08,36,58.49,28.68,58.35a1,1,0,0,0,0,1.89c5.52.1,9.27-6.16,11-10.55a40.77,40.77,0,0,0,.43-27.33c-.37-1.16-2.2-.66-1.83.5Z"/><path class="cls-3" d="M35.82,17.49a26.07,26.07,0,0,1,1.23,2.34c.53,1.1,2.16.14,1.64-1-.38-.79-.78-1.58-1.23-2.33-.63-1-2.27-.09-1.64.95Z"/><path class="cls-3" d="M28.85,59.82c-.61,0-1.22,0-1.82-.08L27.18,58a20.91,20.91,0,0,0,14.93-4.73c6.71-5.39,10.24-13.64,9-21a24.93,24.93,0,0,0-6.78-12.55,56,56,0,0,0-9.51-8.34l1-1.46a56.66,56.66,0,0,1,9.78,8.57,26.58,26.58,0,0,1,7.24,13.48c1.36,8-2.42,16.91-9.64,22.7A23,23,0,0,1,28.85,59.82Z"/><path class="cls-4" d="M55.75,37.75c.57-10.4-9.92-21.66-20.11-25.7a2.17,2.17,0,0,0-.7-.27,3.4,3.4,0,0,1-.34-.12l-.42-.15-.28-.09a13.93,13.93,0,0,1-1.37-.49,1.06,1.06,0,0,1-.41-.22.79.79,0,0,1-.07-.42,4.28,4.28,0,0,1,.63-1.58c.11-.2.23-.41.33-.62l.14-.26c.16-.3.39-.74.53-1l0,0c.9-1.15-.33-3-1.85-4.15a6.76,6.76,0,0,0-2.32-1.24c-1.3-.37-1.91.11-2.16.43a1.32,1.32,0,0,0-.29.78c-.7,1.16-2.39,4.8-2.41,4.84a9,9,0,0,1-2.28,3.05,16.89,16.89,0,0,1-2.82,1.81C9.74,16.41-.55,27.33,0,37.75.61,48.45,9,57.67,20.42,60.42v.06c0,2.16,3.21,3.79,7.46,3.79s7.47-1.63,7.47-3.79v-.06C46.82,57.67,55.16,48.45,55.75,37.75Z"/></g></g></g></svg>